<svg xmlns="http://www.w3.org/2000/svg" viewBox="0 0 800 500" role="img" aria-labelledby="title desc">
  <title id="title">Civic theme preview</title>
  <desc id="desc">Civic preview card for public institutions and community sites.</desc>
  <rect width="800" height="500" fill="#edf4fb"/>
  <rect x="0" y="0" width="800" height="116" fill="#0f4f7a"/>
  <rect x="42" y="34" width="60" height="60" rx="18" fill="#ffffff" opacity="0.96"/>
  <rect x="122" y="42" width="182" height="18" rx="9" fill="#ffffff"/>
  <rect x="122" y="70" width="236" height="12" rx="6" fill="#d7e8f5"/>
  <rect x="502" y="44" width="88" height="28" rx="14" fill="#dce9f5"/>
  <rect x="604" y="44" width="122" height="28" rx="14" fill="#ffffff"/>
  <rect x="42" y="146" width="716" height="124" rx="22" fill="#ffffff"/>
  <rect x="68" y="174" width="104" height="14" rx="7" fill="#1c6b99"/>
  <rect x="68" y="200" width="330" height="34" rx="14" fill="#183246"/>
  <rect x="452" y="166" width="280" height="82" rx="18" fill="#f2f7fb"/>
  <rect x="478" y="188" width="174" height="12" rx="6" fill="#1c6b99"/>
  <rect x="478" y="212" width="214" height="12" rx="6" fill="#476175"/>
  <rect x="42" y="294" width="228" height="160" rx="22" fill="#ffffff"/>
  <rect x="286" y="294" width="228" height="160" rx="22" fill="#ffffff"/>
  <rect x="530" y="294" width="228" height="160" rx="22" fill="#ffffff"/>
  <rect x="68" y="320" width="120" height="12" rx="6" fill="#1c6b99"/>
  <rect x="68" y="346" width="148" height="18" rx="9" fill="#183246"/>
  <rect x="68" y="378" width="178" height="10" rx="5" fill="#5f7282"/>
  <rect x="312" y="320" width="120" height="12" rx="6" fill="#1c6b99"/>
  <rect x="312" y="346" width="156" height="18" rx="9" fill="#183246"/>
  <rect x="312" y="378" width="176" height="10" rx="5" fill="#5f7282"/>
  <rect x="556" y="320" width="120" height="12" rx="6" fill="#1c6b99"/>
  <rect x="556" y="346" width="142" height="18" rx="9" fill="#183246"/>
  <rect x="556" y="378" width="166" height="10" rx="5" fill="#5f7282"/>
  <rect x="556" y="408" width="112" height="30" rx="15" fill="#0f4f7a"/>
</svg>
