<svg xmlns="http://www.w3.org/2000/svg" viewBox="0 0 800 500" role="img" aria-labelledby="title desc">
  <title id="title">Default theme preview</title>
  <desc id="desc">Balanced preview card for the default theme.</desc>
  <defs>
    <linearGradient id="bg" x1="0" x2="1" y1="0" y2="1">
      <stop offset="0%" stop-color="#e7eef4"/>
      <stop offset="100%" stop-color="#f4efe7"/>
    </linearGradient>
  </defs>
  <rect width="800" height="500" fill="url(#bg)"/>
  <rect x="36" y="28" width="728" height="92" rx="24" fill="#ffffff" opacity="0.92"/>
  <rect x="64" y="50" width="58" height="58" rx="18" fill="#dcecf5"/>
  <rect x="140" y="54" width="190" height="18" rx="9" fill="#18212a"/>
  <rect x="140" y="82" width="240" height="12" rx="6" fill="#4d5d6d" opacity="0.9"/>
  <rect x="528" y="58" width="78" height="28" rx="14" fill="#ffffff" stroke="#c9d5e2"/>
  <rect x="616" y="58" width="90" height="28" rx="14" fill="#0f5f8c"/>
  <rect x="36" y="142" width="728" height="152" rx="30" fill="#ffffff"/>
  <rect x="70" y="176" width="102" height="16" rx="8" fill="#9b5d1b"/>
  <rect x="70" y="206" width="288" height="42" rx="18" fill="#18212a"/>
  <rect x="70" y="262" width="342" height="14" rx="7" fill="#4d5d6d" opacity="0.8"/>
  <rect x="514" y="168" width="214" height="96" rx="22" fill="#eef4f8"/>
  <rect x="542" y="194" width="92" height="12" rx="6" fill="#0f5f8c"/>
  <rect x="542" y="218" width="132" height="12" rx="6" fill="#4d5d6d" opacity="0.84"/>
  <rect x="542" y="242" width="108" height="12" rx="6" fill="#4d5d6d" opacity="0.72"/>
  <rect x="36" y="320" width="228" height="142" rx="26" fill="#ffffff"/>
  <rect x="286" y="320" width="228" height="142" rx="26" fill="#ffffff"/>
  <rect x="536" y="320" width="228" height="142" rx="26" fill="#ffffff"/>
  <rect x="62" y="344" width="96" height="12" rx="6" fill="#9b5d1b"/>
  <rect x="62" y="370" width="156" height="18" rx="9" fill="#18212a"/>
  <rect x="62" y="402" width="166" height="10" rx="5" fill="#4d5d6d" opacity="0.76"/>
  <rect x="312" y="344" width="96" height="12" rx="6" fill="#0f5f8c"/>
  <rect x="312" y="370" width="150" height="18" rx="9" fill="#18212a"/>
  <rect x="312" y="402" width="160" height="10" rx="5" fill="#4d5d6d" opacity="0.76"/>
  <rect x="562" y="344" width="112" height="12" rx="6" fill="#0f5f8c"/>
  <rect x="562" y="370" width="136" height="18" rx="9" fill="#18212a"/>
  <rect x="562" y="402" width="150" height="10" rx="5" fill="#4d5d6d" opacity="0.76"/>
</svg>
